<?xml version="1.0" encoding="UTF-8" standalone="no"?>
<!-- Created with Inkscape (http://www.inkscape.org/) -->

<svg
   xmlns:dc="http://purl.org/dc/elements/1.1/"
   xmlns:cc="http://creativecommons.org/ns#"
   xmlns:rdf="http://www.w3.org/1999/02/22-rdf-syntax-ns#"
   xmlns:svg="http://www.w3.org/2000/svg"
   xmlns="http://www.w3.org/2000/svg"
   xmlns:sodipodi="http://sodipodi.sourceforge.net/DTD/sodipodi-0.dtd"
   xmlns:inkscape="http://www.inkscape.org/namespaces/inkscape"
   width="750"
   height="250"
   viewBox="0 0 198.43749 66.145836"
   version="1.1"
   id="svg638"
   inkscape:version="0.92.3 (2405546, 2018-03-11)"
   sodipodi:docname="drawing.svg">
  <defs
     id="defs632">
    <clipPath
       clipPathUnits="userSpaceOnUse"
       id="clipPath372">
      <path
         d="M 0,800 H 800 V 0 H 0 Z"
         id="path370"
         inkscape:connector-curvature="0" />
    </clipPath>
  </defs>
  <sodipodi:namedview
     id="base"
     pagecolor="#ffffff"
     bordercolor="#666666"
     borderopacity="1.0"
     inkscape:pageopacity="0.0"
     inkscape:pageshadow="2"
     inkscape:zoom="1.4"
     inkscape:cx="363.35208"
     inkscape:cy="98.279699"
     inkscape:document-units="mm"
     inkscape:current-layer="text364"
     showgrid="false"
     units="px"
     inkscape:window-width="1366"
     inkscape:window-height="705"
     inkscape:window-x="0"
     inkscape:window-y="30"
     inkscape:window-maximized="1" />
  <metadata
     id="metadata635">
    <rdf:RDF>
      <cc:Work
         rdf:about="">
        <dc:format>image/svg+xml</dc:format>
        <dc:type
           rdf:resource="http://purl.org/dc/dcmitype/StillImage" />
        <dc:title />
      </cc:Work>
    </rdf:RDF>
  </metadata>
  <g
     inkscape:label="Layer 1"
     inkscape:groupmode="layer"
     id="layer1"
     transform="translate(0,-230.85415)">
    <g
       aria-label="AGOMEZJUAN"
       style="font-variant:normal;font-weight:800;font-stretch:normal;font-size:14.11111069px;font-family:'Montserrat ExtraBold';-inkscape-font-specification:Montserrat-ExtraBold;text-align:center;writing-mode:lr-tb;text-anchor:middle;fill:#2d2d2d;fill-opacity:1;fill-rule:nonzero;stroke:none;stroke-width:0.35277775"
       id="text360">
      <path
         d="m 68.660534,259.24342 h -4.147895 l -0.654568,1.87413 h -2.666504 l 3.810276,-10.28705 h 3.162597 l 3.810276,10.28705 h -2.666504 z m -3.486437,-1.90858 h 2.818089 l -1.405599,-4.09277 z"
         style="font-size:14.11111069px;text-align:center;text-anchor:middle;stroke-width:0.35277775"
         id="path5324"
         inkscape:connector-curvature="0" />
      <path
         d="m 82.57872,260.35274 q -0.992188,0.48232 -2.060167,0.72347 -1.06798,0.24116 -2.204861,0.24116 -2.570042,0 -4.072103,-1.43316 -1.502062,-1.44005 -1.502062,-3.89985 0,-2.48736 1.529623,-3.91363 1.529622,-1.42627 4.189236,-1.42627 1.026638,0 1.963704,0.19293 0.943956,0.19292 1.777669,0.57188 v 2.12907 q -0.861274,-0.4892 -1.715657,-0.73036 -0.847494,-0.24115 -1.701877,-0.24115 -1.584744,0 -2.446018,0.88883 -0.854384,0.88195 -0.854384,2.5287 0,1.63298 0.826823,2.52181 0.826823,0.88884 2.349555,0.88884 0.413412,0 0.764811,-0.0482 0.35829,-0.0551 0.640788,-0.16536 v -1.99816 h -1.619195 v -1.77766 h 4.134115 z"
         style="font-size:14.11111069px;text-align:center;text-anchor:middle;stroke-width:0.35277775"
         id="path5326"
         inkscape:connector-curvature="0" />
      <path
         d="m 89.606713,252.56683 q -1.212673,0 -1.881022,0.89572 -0.668348,0.89573 -0.668348,2.52181 0,1.6192 0.668348,2.51492 0.668349,0.89573 1.881022,0.89573 1.219564,0 1.887913,-0.89573 0.668348,-0.89572 0.668348,-2.51492 0,-1.62608 -0.668348,-2.52181 -0.668349,-0.89572 -1.887913,-0.89572 z m 0,-1.92237 q 2.480469,0 3.886068,1.41938 1.405599,1.41938 1.405599,3.92052 0,2.49425 -1.405599,3.91363 -1.405599,1.41938 -3.886068,1.41938 -2.473578,0 -3.886067,-1.41938 -1.405599,-1.41938 -1.405599,-3.91363 0,-2.50114 1.405599,-3.92052 1.412489,-1.41938 3.886067,-1.41938 z"
         style="font-size:14.11111069px;text-align:center;text-anchor:middle;stroke-width:0.35277775"
         id="path5328"
         inkscape:connector-curvature="0" />
      <path
         d="m 96.896537,250.8305 h 3.376193 l 2.34267,5.50526 2.35644,-5.50526 h 3.3693 v 10.28705 h -2.50803 v -7.52408 l -2.37022,5.5466 h -1.68121 l -2.370224,-5.5466 v 7.52408 h -2.514919 z"
         style="font-size:14.11111069px;text-align:center;text-anchor:middle;stroke-width:0.35277775"
         id="path5330"
         inkscape:connector-curvature="0" />
      <path
         d="m 110.95253,250.8305 h 7.1589 v 2.00504 h -4.50618 v 1.91548 h 4.23747 v 2.00504 h -4.23747 v 2.35645 h 4.65777 v 2.00504 h -7.31049 z"
         style="font-size:14.11111069px;text-align:center;text-anchor:middle;stroke-width:0.35277775"
         id="path5332"
         inkscape:connector-curvature="0" />
      <path
         d="m 120.09581,250.8305 h 8.64719 v 1.60541 l -5.51905,6.6766 h 5.67752 v 2.00504 h -8.96414 v -1.60541 l 5.51905,-6.6766 h -5.36057 z"
         style="font-size:14.11111069px;text-align:center;text-anchor:middle;stroke-width:0.35277775"
         id="path5334"
         inkscape:connector-curvature="0" />
      <path
         d="m 130.82384,250.8305 h 2.65272 v 9.28798 q 0,1.92236 -1.04731,2.87321 -1.04042,0.95084 -3.15571,0.95084 h -0.53743 v -2.00504 h 0.41341 q 0.82682,0 1.24712,-0.46165 0.4272,-0.46164 0.4272,-1.35736 z"
         style="font-size:14.11111069px;text-align:center;text-anchor:middle;stroke-width:0.35277775"
         id="path5336"
         inkscape:connector-curvature="0" />
      <path
         d="m 136.08794,250.8305 h 2.65273 v 6.16672 q 0,1.27468 0.41341,1.8259 0.4203,0.54433 1.36426,0.54433 0.95084,0 1.36425,-0.54433 0.42031,-0.55122 0.42031,-1.8259 v -6.16672 h 2.65272 v 6.16672 q 0,2.18419 -1.09554,3.25217 -1.09554,1.06798 -3.34174,1.06798 -2.23932,0 -3.33486,-1.06798 -1.09554,-1.06798 -1.09554,-3.25217 z"
         style="font-size:14.11111069px;text-align:center;text-anchor:middle;stroke-width:0.35277775"
         id="path5338"
         inkscape:connector-curvature="0" />
      <path
         d="m 153.35476,259.24342 h -4.14789 l -0.65457,1.87413 h -2.6665 l 3.81027,-10.28705 h 3.1626 l 3.81027,10.28705 h -2.6665 z m -3.48643,-1.90858 h 2.81808 l -1.40559,-4.09277 z"
         style="font-size:14.11111069px;text-align:center;text-anchor:middle;stroke-width:0.35277775"
         id="path5340"
         inkscape:connector-curvature="0" />
      <path
         d="m 158.02631,250.8305 h 2.96278 l 3.74138,7.05555 v -7.05555 h 2.51492 v 10.28705 h -2.96278 l -3.74138,-7.05555 v 7.05555 h -2.51492 z"
         style="font-size:14.11111069px;text-align:center;text-anchor:middle;stroke-width:0.35277775"
         id="path5342"
         inkscape:connector-curvature="0" />
    </g>
    <g
       aria-label="Hoja de Vida Digital"
       style="font-variant:normal;font-weight:200;font-stretch:normal;font-size:7.19740725px;font-family:'Montserrat ExtraLight';-inkscape-font-specification:Montserrat-ExtraLight;writing-mode:lr-tb;fill:#2d2d2d;fill-opacity:1;fill-rule:nonzero;stroke:none;stroke-width:0.35277775"
       id="text364">
      <path
         d="m 62.729072,268.16987 h 0.539329 v 3.50297 h 4.458815 v -3.50297 h 0.53933 v 7.97246 h -0.53933 v -4.03696 h -4.458815 v 4.03696 h -0.539329 z"
         style="font-size:10.93611145px;stroke-width:0.35277775"
         id="path5289"
         inkscape:connector-curvature="0" />
      <path
         d="M 74.418109,271.18691 Q 73.889459,270.45 72.976336,270.45 q -0.913123,0 -1.441772,0.73157 -0.53399,0.72622 -0.53399,1.96508 0,1.2709 0.52865,1.99712 0.52865,0.73157 1.447112,0.73157 0.913123,0 1.441773,-0.73157 0.533989,-0.7369 0.533989,-1.99712 0,-1.22284 -0.533989,-1.95974 z m -1.447113,-1.16944 q 1.142738,0 1.804886,0.85438 0.667487,0.85973 0.667487,2.28014 0,1.46847 -0.667487,2.31752 -0.662148,0.85438 -1.804886,0.85438 -1.153418,0 -1.820905,-0.84904 -0.662148,-0.84905 -0.662148,-2.32286 0,-1.43643 0.667488,-2.28548 0.667487,-0.84904 1.815565,-0.84904 z"
         style="font-size:10.93611145px;stroke-width:0.35277775"
         id="path5291"
         inkscape:connector-curvature="0" />
      <path
         d="m 77.584668,270.16165 h 0.491271 v 6.08748 q 0,1.2175 -0.368453,1.69275 -0.373793,0.47525 -1.222837,0.47525 h -0.373793 v -0.41651 h 0.261655 q 0.598069,0 0.907783,-0.267 0.304374,-0.26699 0.304374,-1.48449 z m 0,-2.3282 h 0.491271 v 0.67283 h -0.491271 z"
         style="font-size:10.93611145px;stroke-width:0.35277775"
         id="path5293"
         inkscape:connector-curvature="0" />
      <path
         d="m 82.972626,272.76752 q -1.185457,0 -1.708767,0.42185 -0.52331,0.42185 -0.52331,1.23352 0,0.7903 0.432532,1.12138 0.432531,0.33107 1.02526,0.33107 1.121379,0 1.612649,-0.9505 0.496611,-0.9505 0.496611,-1.78887 v -0.36845 z m 1.831585,-0.0374 v 3.41219 h -0.48593 V 274.519 q -0.411173,1.1908 -1.08934,1.51654 -0.539329,0.26165 -1.073319,0.26165 -0.891763,0 -1.404393,-0.47525 -0.512631,-0.48059 -0.512631,-1.40973 0,-0.92915 0.667488,-1.48449 0.667487,-0.56069 2.184018,-0.56069 h 1.217497 v -0.0961 q 0,-0.79565 -0.453892,-1.30828 -0.448551,-0.51263 -1.484491,-0.51263 -0.51263,0 -1.04662,0.19224 -0.341754,0.12282 -0.886423,0.49661 v -0.52865 q 0.475251,-0.29369 0.886423,-0.41651 0.598068,-0.17622 1.148078,-0.17622 1.0573,0 1.740807,0.64079 0.592728,0.55001 0.592728,2.07188 z"
         style="font-size:10.93611145px;stroke-width:0.35277775"
         id="path5295"
         inkscape:connector-curvature="0" />
      <path
         d="m 94.74176,271.52866 v -3.69521 h 0.480591 v 8.30888 H 94.74176 V 274.786 q -0.336413,0.77962 -0.731566,1.06798 -0.603408,0.44321 -1.137398,0.44321 -1.06264,0 -1.767506,-0.86506 -0.704867,-0.86507 -0.704867,-2.2748 0,-1.40973 0.704867,-2.2748 0.704866,-0.86506 1.767506,-0.86506 0.53399,0 1.137398,0.44321 0.395153,0.28836 0.731566,1.06798 z m -3.203939,-0.45389 q -0.619428,0.62477 -0.619428,2.08256 0,1.45779 0.619428,2.08256 0.614089,0.62477 1.297596,0.62477 0.667487,0 1.286915,-0.62477 0.614088,-0.62477 0.614088,-2.08256 0,-1.45779 -0.614088,-2.08256 -0.619428,-0.62477 -1.286915,-0.62477 -0.683507,0 -1.297596,0.62477 z"
         style="font-size:10.93611145px;stroke-width:0.35277775"
         id="path5297"
         inkscape:connector-curvature="0" />
      <path
         d="m 102.37248,272.90636 v 0.30971 h -4.538916 q 0,1.44177 0.560689,2.01848 0.619428,0.64079 1.842267,0.64079 0.32039,0 0.84904,-0.13884 0.53399,-0.13884 1.0573,-0.41651 v 0.51797 q -0.52865,0.22428 -1.084,0.34175 -0.55535,0.11748 -0.88108,0.11748 -1.383035,0 -2.082561,-0.74758 -0.758266,-0.79565 -0.758266,-2.33354 0,-1.59663 0.694187,-2.38159 0.710206,-0.81701 1.97576,-0.81701 1.17478,0 1.77285,0.77429 0.59273,0.81166 0.59273,2.1146 z m -0.49661,-0.1068 q 0,-1.26022 -0.56603,-1.83693 -0.47525,-0.51263 -1.29226,-0.51263 -0.891761,0 -1.49517,0.53399 -0.555349,0.49661 -0.667487,1.81557 z"
         style="font-size:10.93611145px;stroke-width:0.35277775"
         id="path5299"
         inkscape:connector-curvature="0" />
      <path
         d="m 110.05659,276.14233 -3.04374,-7.97246 h 0.60875 l 2.7981,7.43847 2.81947,-7.43847 h 0.56069 l -3.0384,7.97246 z"
         style="font-size:10.93611145px;stroke-width:0.35277775"
         id="path5301"
         inkscape:connector-curvature="0" />
      <path
         d="m 115.15085,270.16165 h 0.49127 v 5.98068 h -0.49127 z m 0,-2.3282 h 0.49127 v 0.67283 h -0.49127 z"
         style="font-size:10.93611145px;stroke-width:0.35277775"
         id="path5303"
         inkscape:connector-curvature="0" />
      <path
         d="m 122.16748,271.52866 v -3.69521 h 0.48059 v 8.30888 h -0.48059 V 274.786 q -0.33641,0.77962 -0.73157,1.06798 -0.60341,0.44321 -1.1374,0.44321 -1.06264,0 -1.7675,-0.86506 -0.70487,-0.86507 -0.70487,-2.2748 0,-1.40973 0.70487,-2.2748 0.70486,-0.86506 1.7675,-0.86506 0.53399,0 1.1374,0.44321 0.39516,0.28836 0.73157,1.06798 z m -3.20394,-0.45389 q -0.61943,0.62477 -0.61943,2.08256 0,1.45779 0.61943,2.08256 0.61409,0.62477 1.2976,0.62477 0.66748,0 1.28691,-0.62477 0.61409,-0.62477 0.61409,-2.08256 0,-1.45779 -0.61409,-2.08256 -0.61943,-0.62477 -1.28691,-0.62477 -0.68351,0 -1.2976,0.62477 z"
         style="font-size:10.93611145px;stroke-width:0.35277775"
         id="path5305"
         inkscape:connector-curvature="0" />
      <path
         d="m 127.52874,272.76752 q -1.18546,0 -1.70877,0.42185 -0.52331,0.42185 -0.52331,1.23352 0,0.7903 0.43253,1.12138 0.43253,0.33107 1.02526,0.33107 1.12138,0 1.61265,-0.9505 0.49661,-0.9505 0.49661,-1.78887 v -0.36845 z m 1.83158,-0.0374 v 3.41219 h -0.48593 V 274.519 q -0.41117,1.1908 -1.08934,1.51654 -0.53933,0.26165 -1.07332,0.26165 -0.89176,0 -1.40439,-0.47525 -0.51263,-0.48059 -0.51263,-1.40973 0,-0.92915 0.66749,-1.48449 0.66748,-0.56069 2.18401,-0.56069 h 1.2175 v -0.0961 q 0,-0.79565 -0.45389,-1.30828 -0.44855,-0.51263 -1.48449,-0.51263 -0.51263,0 -1.04662,0.19224 -0.34176,0.12282 -0.88642,0.49661 v -0.52865 q 0.47525,-0.29369 0.88642,-0.41651 0.59807,-0.17622 1.14808,-0.17622 1.0573,0 1.7408,0.64079 0.59273,0.55001 0.59273,2.07188 z"
         style="font-size:10.93611145px;stroke-width:0.35277775"
         id="path5307"
         inkscape:connector-curvature="0" />
      <path
         d="m 135.96043,268.62376 v 7.08604 h 1.58061 q 1.80489,0 2.64325,-0.85438 0.84371,-0.85439 0.84371,-2.69665 0,-1.83159 -0.84371,-2.68597 -0.83836,-0.84904 -2.64325,-0.84904 z m -0.54467,-0.45389 h 1.95975 q 2.17867,0 3.19859,0.96652 1.01993,0.96118 1.01993,3.0117 0,2.0612 -1.02527,3.02772 -1.02526,0.96652 -3.19325,0.96652 h -1.95975 z"
         style="font-size:10.93611145px;stroke-width:0.35277775"
         id="path5309"
         inkscape:connector-curvature="0" />
      <path
         d="m 143.72998,270.16165 h 0.49128 v 5.98068 h -0.49128 z m 0,-2.3282 h 0.49128 v 0.67283 h -0.49128 z"
         style="font-size:10.93611145px;stroke-width:0.35277775"
         id="path5311"
         inkscape:connector-curvature="0" />
      <path
         d="m 150.74661,273.08257 q 0,-1.24419 -0.50729,-1.9277 -0.50195,-0.68885 -1.41507,-0.68885 -0.90244,0 -1.40973,0.68885 -0.50195,0.68351 -0.50195,1.9277 0,1.23886 0.50195,1.92771 0.50729,0.6835 1.40973,0.6835 0.91312,0 1.41507,-0.6835 0.50729,-0.68885 0.50729,-1.92771 z m 0.49128,2.31752 q 0,1.86362 -0.71021,2.44033 -0.71021,0.57671 -1.79955,0.57671 -0.51797,0 -0.9772,-0.0748 -0.45923,-0.0801 -0.89176,-0.24029 v -0.56069 q 0.43253,0.23495 0.85438,0.34709 0.42185,0.11214 0.85973,0.11214 0.89176,0 1.53255,-0.37913 0.64078,-0.37914 0.64078,-2.04519 v -0.93448 q -0.21893,0.61409 -0.6034,0.96652 -0.58739,0.53933 -1.31896,0.53399 -1.1374,0 -1.77284,-0.80098 -0.63545,-0.80633 -0.63545,-2.26412 0,-1.45245 0.63545,-2.25343 0.63544,-0.80633 1.77284,-0.80633 0.72623,0 1.24954,0.45923 0.40583,0.35778 0.67282,0.95584 v -1.27089 h 0.49128 z"
         style="font-size:10.93611145px;stroke-width:0.35277775"
         id="path5313"
         inkscape:connector-curvature="0" />
      <path
         d="m 153.32045,270.16165 h 0.49127 v 5.98068 h -0.49127 z m 0,-2.3282 h 0.49127 v 0.67283 h -0.49127 z"
         style="font-size:10.93611145px;stroke-width:0.35277775"
         id="path5315"
         inkscape:connector-curvature="0" />
      <path
         d="m 156.88215,268.46356 v 1.69809 h 2.02383 v 0.41651 h -2.02383 v 3.59375 q 0,0.68351 0.17622,0.95584 0.36311,0.59807 1.0573,0.59807 h 0.79031 v 0.41651 h -0.76361 q -0.73157,0 -1.2442,-0.42719 -0.51263,-0.42719 -0.51263,-1.54323 v -3.59375 H 155.67 v -0.41651 h 0.71554 v -1.69809 z"
         style="font-size:10.93611145px;stroke-width:0.35277775"
         id="path5317"
         inkscape:connector-curvature="0" />
      <path
         d="m 163.04974,272.76752 q -1.18546,0 -1.70877,0.42185 -0.52331,0.42185 -0.52331,1.23352 0,0.7903 0.43253,1.12138 0.43254,0.33107 1.02527,0.33107 1.12137,0 1.61264,-0.9505 0.49661,-0.9505 0.49661,-1.78887 v -0.36845 z m 1.83159,-0.0374 v 3.41219 h -0.48594 V 274.519 q -0.41117,1.1908 -1.08933,1.51654 -0.53933,0.26165 -1.07332,0.26165 -0.89177,0 -1.4044,-0.47525 -0.51263,-0.48059 -0.51263,-1.40973 0,-0.92915 0.66749,-1.48449 0.66749,-0.56069 2.18402,-0.56069 h 1.21749 v -0.0961 q 0,-0.79565 -0.45389,-1.30828 -0.44855,-0.51263 -1.48449,-0.51263 -0.51263,0 -1.04662,0.19224 -0.34175,0.12282 -0.88642,0.49661 v -0.52865 q 0.47525,-0.29369 0.88642,-0.41651 0.59807,-0.17622 1.14808,-0.17622 1.0573,0 1.74081,0.64079 0.59273,0.55001 0.59273,2.07188 z"
         style="font-size:10.93611145px;stroke-width:0.35277775"
         id="path5319"
         inkscape:connector-curvature="0" />
      <path
         d="m 167.36438,267.83345 h 0.49127 v 8.30888 h -0.49127 z"
         style="font-size:10.93611145px;stroke-width:0.35277775"
         id="path5321"
         inkscape:connector-curvature="0" />
    </g>
    <g
       transform="matrix(0.30612483,0,0,0.30612483,-154.63536,194.74387)"
       id="g366">
      <g
         id="g368"
         clip-path="url(#clipPath372)">
        <g
           id="g374"
           transform="translate(599.4502,252.5771)">
          <path
             d="m 0,0 0.06,0.034 -18.617,10.75 V -32.139 L 0,-21.423 Z"
             style="fill:#931a3d;fill-opacity:1;fill-rule:nonzero;stroke:none"
             id="path376"
             inkscape:connector-curvature="0" />
        </g>
        <g
           id="g378"
           transform="translate(580.8936,263.3613)">
          <path
             d="M 0,0 18.616,-10.75 37.113,-0.068 V 21.357 Z"
             style="fill:#ee3e30;fill-opacity:1;fill-rule:nonzero;stroke:none"
             id="path380"
             inkscape:connector-curvature="0" />
        </g>
        <g
           id="g382"
           transform="translate(692.3604,263.3613)">
          <path
             d="M 0,0 -37.24,21.357 V -0.068 l 18.556,-10.716 v -0.002 z"
             style="fill:#931a3d;fill-opacity:1;fill-rule:nonzero;stroke:none"
             id="path384"
             inkscape:connector-curvature="0" />
        </g>
        <g
           id="g386"
           transform="translate(636.5615,188.2969)">
          <path
             d="M 0,0 -18.556,10.716 -37.111,0 0.065,-21.469 V 0.039 Z"
             style="fill:#ee3e30;fill-opacity:1;fill-rule:nonzero;stroke:none"
             id="path388"
             inkscape:connector-curvature="0" />
        </g>
        <g
           id="g390"
           transform="translate(673.6768,188.2969)">
          <path
             d="M 0,0 -18.557,10.716 H -18.56 L -37.05,0.039 v -21.508 z"
             style="fill:#931a3d;fill-opacity:1;fill-rule:nonzero;stroke:none"
             id="path392"
             inkscape:connector-curvature="0" />
        </g>
        <g
           id="g394"
           transform="translate(673.6768,252.5752)">
          <path
             d="m 0,0 v -21.421 l 18.556,-10.716 0.128,42.923 z"
             style="fill:#ee3e30;fill-opacity:1;fill-rule:nonzero;stroke:none"
             id="path396"
             inkscape:connector-curvature="0" />
        </g>
        <g
           id="g398"
           transform="translate(655.1211,220.4375)">
          <path
             d="M 0,0 0.058,0.033"
             style="fill:#931a3d;fill-opacity:1;fill-rule:nonzero;stroke:none"
             id="path400"
             inkscape:connector-curvature="0" />
        </g>
        <g
           id="g402"
           transform="translate(636.6172,193.96)">
          <path
             d="M 0,0 15.714,9.074 V 27.282 L 0,36.356 Z"
             style="fill:#f58b1f;fill-opacity:1;fill-rule:nonzero;stroke:none"
             id="path404"
             inkscape:connector-curvature="0" />
        </g>
        <g
           id="g406"
           transform="translate(623.2324,222.6504)">
          <path
             d="M 0,0 -2.439,-1.409 V -19.616 H -2.44 l 15.769,-9.107 V 7.694 Z"
             style="fill:#ffc724;fill-opacity:1;fill-rule:nonzero;stroke:none"
             id="path408"
             inkscape:connector-curvature="0" />
        </g>
        <g
           id="g410"
           transform="translate(636.5635,248.5557)">
          <path
             d="M 0,0 -15.771,9.106 -31.49,0.029 0,-18.154 Z"
             style="fill:#ffc724;fill-opacity:1;fill-rule:nonzero;stroke:none"
             id="path412"
             inkscape:connector-curvature="0" />
        </g>
        <g
           id="g414"
           transform="translate(605.0225,230.3496)">
          <path
             d="M 0,0 15.77,-9.106 31.539,0 0,18.206 Z"
             style="fill:#f58b1f;fill-opacity:1;fill-rule:nonzero;stroke:none"
             id="path416"
             inkscape:connector-curvature="0" />
        </g>
        <g
           id="g418"
           transform="translate(636.6172,230.3789)">
          <path
             d="m 0,0 -0.008,-0.004 -0.046,-0.027 0.002,-0.001 0.052,-0.03 15.714,-9.075 0.003,-10e-4 10e-4,10e-4 0.049,0.029 15.719,9.077 v 0.002 18.204 0.002 z"
             style="fill:#ffc724;fill-opacity:1;fill-rule:nonzero;stroke:none"
             id="path420"
             inkscape:connector-curvature="0" />
        </g>
        <g
           id="g422"
           transform="translate(636.6172,230.3789)">
          <path
             d="M 0,0 31.486,18.177 15.717,27.283 0,18.209 Z"
             style="fill:#f58b1f;fill-opacity:1;fill-rule:nonzero;stroke:none"
             id="path424"
             inkscape:connector-curvature="0" />
        </g>
      </g>
    </g>
  </g>
</svg>
